<mxfile host="app.diagrams.net" modified="2023-08-07T20:40:28.642Z" agent="Mozilla/5.0 (Windows NT 10.0; Win64; x64) AppleWebKit/537.36 (KHTML, like Gecko) Chrome/115.0.0.0 Safari/537.36" etag="H_Sw_Hvb6Wg4atg9B_Ne" version="21.6.5" type="onedrive">
  <diagram name="Page-1" id="Y5zYqa-khzpTiRgMUGM_">
    <mxGraphModel grid="1" page="1" gridSize="10" guides="1" tooltips="1" connect="1" arrows="1" fold="1" pageScale="1" pageWidth="827" pageHeight="1169" math="0" shadow="0">
      <root>
        <mxCell id="0" />
        <mxCell id="1" parent="0" />
        <mxCell id="_Mnv31haUIww7fpycwhO-78" style="edgeStyle=orthogonalEdgeStyle;rounded=0;orthogonalLoop=1;jettySize=auto;html=1;exitX=0;exitY=0.5;exitDx=0;exitDy=0;entryX=0.5;entryY=0;entryDx=0;entryDy=0;fontSize=13;strokeWidth=1;" edge="1" parent="1" source="yUk9LNatjU3RDufKE9MY-1" target="_Mnv31haUIww7fpycwhO-76">
          <mxGeometry relative="1" as="geometry" />
        </mxCell>
        <mxCell id="yUk9LNatjU3RDufKE9MY-1" value="Restaurants" style="rounded=0;whiteSpace=wrap;html=1;" vertex="1" parent="1">
          <mxGeometry x="100" y="230" width="120" height="60" as="geometry" />
        </mxCell>
        <mxCell id="yUk9LNatjU3RDufKE9MY-2" value="Menus" style="rounded=0;whiteSpace=wrap;html=1;" vertex="1" parent="1">
          <mxGeometry x="470" y="230" width="120" height="60" as="geometry" />
        </mxCell>
        <mxCell id="yUk9LNatjU3RDufKE9MY-3" value="Ingredients" style="rounded=0;whiteSpace=wrap;html=1;" vertex="1" parent="1">
          <mxGeometry x="840" y="480" width="120" height="60" as="geometry" />
        </mxCell>
        <mxCell id="yUk9LNatjU3RDufKE9MY-4" value="Suppliers" style="rounded=0;whiteSpace=wrap;html=1;" vertex="1" parent="1">
          <mxGeometry x="840" y="690" width="120" height="60" as="geometry" />
        </mxCell>
        <mxCell id="yUk9LNatjU3RDufKE9MY-5" value="Employees" style="rounded=0;whiteSpace=wrap;html=1;" vertex="1" parent="1">
          <mxGeometry x="100" y="480" width="120" height="60" as="geometry" />
        </mxCell>
        <mxCell id="yUk9LNatjU3RDufKE9MY-6" value="Customers" style="rounded=0;whiteSpace=wrap;html=1;" vertex="1" parent="1">
          <mxGeometry x="655" y="810" width="120" height="60" as="geometry" />
        </mxCell>
        <mxCell id="yUk9LNatjU3RDufKE9MY-7" value="Orders" style="rounded=0;whiteSpace=wrap;html=1;" vertex="1" parent="1">
          <mxGeometry x="600" y="480" width="120" height="60" as="geometry" />
        </mxCell>
        <mxCell id="yUk9LNatjU3RDufKE9MY-8" value="&lt;u&gt;Restaurant ID&lt;br&gt;&lt;/u&gt;" style="ellipse;whiteSpace=wrap;html=1;" vertex="1" parent="1">
          <mxGeometry x="-20" y="90" width="70" height="40" as="geometry" />
        </mxCell>
        <mxCell id="yUk9LNatjU3RDufKE9MY-12" value="" style="endArrow=none;html=1;rounded=0;entryX=0.5;entryY=1;entryDx=0;entryDy=0;exitX=0;exitY=0;exitDx=0;exitDy=0;" edge="1" parent="1" source="yUk9LNatjU3RDufKE9MY-1" target="yUk9LNatjU3RDufKE9MY-8">
          <mxGeometry width="50" height="50" relative="1" as="geometry">
            <mxPoint x="110" y="200" as="sourcePoint" />
            <mxPoint x="160" y="150" as="targetPoint" />
          </mxGeometry>
        </mxCell>
        <mxCell id="_Mnv31haUIww7fpycwhO-4" value="Name" style="ellipse;whiteSpace=wrap;html=1;" vertex="1" parent="1">
          <mxGeometry x="150" y="90" width="70" height="40" as="geometry" />
        </mxCell>
        <mxCell id="_Mnv31haUIww7fpycwhO-5" value="Location" style="ellipse;whiteSpace=wrap;html=1;" vertex="1" parent="1">
          <mxGeometry x="310" y="90" width="70" height="40" as="geometry" />
        </mxCell>
        <mxCell id="_Mnv31haUIww7fpycwhO-6" value="Cuisine" style="ellipse;whiteSpace=wrap;html=1;" vertex="1" parent="1">
          <mxGeometry x="70" y="90" width="70" height="40" as="geometry" />
        </mxCell>
        <mxCell id="_Mnv31haUIww7fpycwhO-7" value="" style="endArrow=none;html=1;rounded=0;entryX=0.5;entryY=1;entryDx=0;entryDy=0;exitX=0.25;exitY=0;exitDx=0;exitDy=0;" edge="1" parent="1" source="yUk9LNatjU3RDufKE9MY-1" target="_Mnv31haUIww7fpycwhO-6">
          <mxGeometry width="50" height="50" relative="1" as="geometry">
            <mxPoint x="150" y="180" as="sourcePoint" />
            <mxPoint x="200" y="130" as="targetPoint" />
          </mxGeometry>
        </mxCell>
        <mxCell id="_Mnv31haUIww7fpycwhO-8" value="" style="endArrow=none;html=1;rounded=0;entryX=0.5;entryY=1;entryDx=0;entryDy=0;exitX=0.5;exitY=0;exitDx=0;exitDy=0;" edge="1" parent="1" source="yUk9LNatjU3RDufKE9MY-1" target="_Mnv31haUIww7fpycwhO-4">
          <mxGeometry width="50" height="50" relative="1" as="geometry">
            <mxPoint x="160" y="220" as="sourcePoint" />
            <mxPoint x="210" y="170" as="targetPoint" />
          </mxGeometry>
        </mxCell>
        <mxCell id="_Mnv31haUIww7fpycwhO-11" value="" style="endArrow=none;html=1;rounded=0;exitX=1;exitY=0;exitDx=0;exitDy=0;entryX=0.5;entryY=1;entryDx=0;entryDy=0;" edge="1" parent="1" source="yUk9LNatjU3RDufKE9MY-1" target="_Mnv31haUIww7fpycwhO-5">
          <mxGeometry width="50" height="50" relative="1" as="geometry">
            <mxPoint x="250" y="230" as="sourcePoint" />
            <mxPoint x="300" y="180" as="targetPoint" />
          </mxGeometry>
        </mxCell>
        <mxCell id="_Mnv31haUIww7fpycwhO-12" value="Offer" style="rhombus;whiteSpace=wrap;html=1;" vertex="1" parent="1">
          <mxGeometry x="300" y="220" width="80" height="80" as="geometry" />
        </mxCell>
        <mxCell id="_Mnv31haUIww7fpycwhO-13" value="" style="endArrow=none;html=1;rounded=0;exitX=1;exitY=0.5;exitDx=0;exitDy=0;entryX=0;entryY=0.5;entryDx=0;entryDy=0;strokeWidth=1;" edge="1" parent="1" source="yUk9LNatjU3RDufKE9MY-1" target="_Mnv31haUIww7fpycwhO-12">
          <mxGeometry width="50" height="50" relative="1" as="geometry">
            <mxPoint x="240" y="290" as="sourcePoint" />
            <mxPoint x="290" y="240" as="targetPoint" />
          </mxGeometry>
        </mxCell>
        <mxCell id="_Mnv31haUIww7fpycwhO-14" value="" style="endArrow=classic;html=1;rounded=0;entryX=1;entryY=0.5;entryDx=0;entryDy=0;exitX=0;exitY=0.5;exitDx=0;exitDy=0;strokeWidth=4;" edge="1" parent="1" source="yUk9LNatjU3RDufKE9MY-2" target="_Mnv31haUIww7fpycwhO-12">
          <mxGeometry width="50" height="50" relative="1" as="geometry">
            <mxPoint x="420" y="280" as="sourcePoint" />
            <mxPoint x="470" y="230" as="targetPoint" />
          </mxGeometry>
        </mxCell>
        <mxCell id="_Mnv31haUIww7fpycwhO-15" value="&lt;u&gt;Menu ID&lt;br&gt;&lt;/u&gt;" style="ellipse;whiteSpace=wrap;html=1;" vertex="1" parent="1">
          <mxGeometry x="440" y="90" width="70" height="40" as="geometry" />
        </mxCell>
        <mxCell id="_Mnv31haUIww7fpycwhO-16" value="" style="endArrow=none;html=1;rounded=0;entryX=0.5;entryY=1;entryDx=0;entryDy=0;exitX=0.25;exitY=0;exitDx=0;exitDy=0;" edge="1" parent="1" source="yUk9LNatjU3RDufKE9MY-2" target="_Mnv31haUIww7fpycwhO-15">
          <mxGeometry width="50" height="50" relative="1" as="geometry">
            <mxPoint x="490" y="210" as="sourcePoint" />
            <mxPoint x="550" y="130" as="targetPoint" />
          </mxGeometry>
        </mxCell>
        <mxCell id="_Mnv31haUIww7fpycwhO-17" value="Type" style="ellipse;whiteSpace=wrap;html=1;" vertex="1" parent="1">
          <mxGeometry x="535" y="90" width="70" height="40" as="geometry" />
        </mxCell>
        <mxCell id="_Mnv31haUIww7fpycwhO-18" value="" style="endArrow=none;html=1;rounded=0;entryX=0.5;entryY=1;entryDx=0;entryDy=0;exitX=0.75;exitY=0;exitDx=0;exitDy=0;" edge="1" parent="1" source="yUk9LNatjU3RDufKE9MY-2" target="_Mnv31haUIww7fpycwhO-17">
          <mxGeometry width="50" height="50" relative="1" as="geometry">
            <mxPoint x="490" y="170" as="sourcePoint" />
            <mxPoint x="540" y="120" as="targetPoint" />
          </mxGeometry>
        </mxCell>
        <mxCell id="_Mnv31haUIww7fpycwhO-19" value="Dishes" style="rounded=0;whiteSpace=wrap;html=1;strokeWidth=3;" vertex="1" parent="1">
          <mxGeometry x="810" y="230" width="120" height="60" as="geometry" />
        </mxCell>
        <mxCell id="_Mnv31haUIww7fpycwhO-20" value="Have" style="rhombus;whiteSpace=wrap;html=1;strokeWidth=3;" vertex="1" parent="1">
          <mxGeometry x="650" y="220" width="80" height="80" as="geometry" />
        </mxCell>
        <mxCell id="_Mnv31haUIww7fpycwhO-21" value="" style="endArrow=classic;html=1;rounded=0;entryX=1;entryY=0.5;entryDx=0;entryDy=0;exitX=0;exitY=0.5;exitDx=0;exitDy=0;strokeWidth=4;" edge="1" parent="1" source="_Mnv31haUIww7fpycwhO-19" target="_Mnv31haUIww7fpycwhO-20">
          <mxGeometry width="50" height="50" relative="1" as="geometry">
            <mxPoint x="800" y="330" as="sourcePoint" />
            <mxPoint x="710" y="330" as="targetPoint" />
          </mxGeometry>
        </mxCell>
        <mxCell id="_Mnv31haUIww7fpycwhO-22" value="" style="endArrow=none;html=1;rounded=0;exitX=1;exitY=0.5;exitDx=0;exitDy=0;entryX=0;entryY=0.5;entryDx=0;entryDy=0;strokeWidth=2;" edge="1" parent="1" source="yUk9LNatjU3RDufKE9MY-2" target="_Mnv31haUIww7fpycwhO-20">
          <mxGeometry width="50" height="50" relative="1" as="geometry">
            <mxPoint x="230" y="270" as="sourcePoint" />
            <mxPoint x="310" y="270" as="targetPoint" />
          </mxGeometry>
        </mxCell>
        <mxCell id="_Mnv31haUIww7fpycwhO-24" value="Date Introduced" style="ellipse;whiteSpace=wrap;html=1;" vertex="1" parent="1">
          <mxGeometry x="655" y="90" width="70" height="40" as="geometry" />
        </mxCell>
        <mxCell id="_Mnv31haUIww7fpycwhO-25" value="" style="endArrow=none;html=1;rounded=0;exitX=0.5;exitY=0;exitDx=0;exitDy=0;entryX=0.5;entryY=1;entryDx=0;entryDy=0;" edge="1" parent="1" source="_Mnv31haUIww7fpycwhO-20" target="_Mnv31haUIww7fpycwhO-24">
          <mxGeometry width="50" height="50" relative="1" as="geometry">
            <mxPoint x="650" y="220" as="sourcePoint" />
            <mxPoint x="700" y="170" as="targetPoint" />
          </mxGeometry>
        </mxCell>
        <mxCell id="_Mnv31haUIww7fpycwhO-27" value="Name" style="ellipse;whiteSpace=wrap;html=1;" vertex="1" parent="1">
          <mxGeometry x="757" y="90" width="70" height="40" as="geometry" />
        </mxCell>
        <mxCell id="_Mnv31haUIww7fpycwhO-28" value="" style="endArrow=none;html=1;rounded=0;exitX=0;exitY=0;exitDx=0;exitDy=0;entryX=0.5;entryY=1;entryDx=0;entryDy=0;" edge="1" parent="1" source="_Mnv31haUIww7fpycwhO-19" target="_Mnv31haUIww7fpycwhO-27">
          <mxGeometry width="50" height="50" relative="1" as="geometry">
            <mxPoint x="830" y="220" as="sourcePoint" />
            <mxPoint x="880" y="170" as="targetPoint" />
          </mxGeometry>
        </mxCell>
        <mxCell id="_Mnv31haUIww7fpycwhO-29" value="Contain" style="rhombus;whiteSpace=wrap;html=1;" vertex="1" parent="1">
          <mxGeometry x="860" y="350" width="80" height="80" as="geometry" />
        </mxCell>
        <mxCell id="_Mnv31haUIww7fpycwhO-30" value="" style="endArrow=none;html=1;rounded=0;exitX=0.5;exitY=0;exitDx=0;exitDy=0;entryX=0.75;entryY=1;entryDx=0;entryDy=0;strokeWidth=1;" edge="1" parent="1" source="_Mnv31haUIww7fpycwhO-29" target="_Mnv31haUIww7fpycwhO-19">
          <mxGeometry width="50" height="50" relative="1" as="geometry">
            <mxPoint x="870" y="340" as="sourcePoint" />
            <mxPoint x="950" y="320" as="targetPoint" />
          </mxGeometry>
        </mxCell>
        <mxCell id="_Mnv31haUIww7fpycwhO-31" value="" style="endArrow=none;html=1;rounded=0;entryX=0.5;entryY=1;entryDx=0;entryDy=0;exitX=0.5;exitY=0;exitDx=0;exitDy=0;" edge="1" parent="1" source="yUk9LNatjU3RDufKE9MY-3" target="_Mnv31haUIww7fpycwhO-29">
          <mxGeometry width="50" height="50" relative="1" as="geometry">
            <mxPoint x="767" y="470" as="sourcePoint" />
            <mxPoint x="817" y="420" as="targetPoint" />
          </mxGeometry>
        </mxCell>
        <mxCell id="_Mnv31haUIww7fpycwhO-32" value="Supply" style="rhombus;whiteSpace=wrap;html=1;" vertex="1" parent="1">
          <mxGeometry x="860" y="580" width="80" height="80" as="geometry" />
        </mxCell>
        <mxCell id="_Mnv31haUIww7fpycwhO-33" value="" style="endArrow=none;html=1;rounded=0;entryX=0.5;entryY=1;entryDx=0;entryDy=0;exitX=0.5;exitY=0;exitDx=0;exitDy=0;" edge="1" parent="1" source="_Mnv31haUIww7fpycwhO-32" target="yUk9LNatjU3RDufKE9MY-3">
          <mxGeometry width="50" height="50" relative="1" as="geometry">
            <mxPoint x="590" y="610" as="sourcePoint" />
            <mxPoint x="640" y="560" as="targetPoint" />
          </mxGeometry>
        </mxCell>
        <mxCell id="_Mnv31haUIww7fpycwhO-34" value="" style="endArrow=none;html=1;rounded=0;entryX=0.5;entryY=1;entryDx=0;entryDy=0;exitX=0.5;exitY=0;exitDx=0;exitDy=0;" edge="1" parent="1" source="yUk9LNatjU3RDufKE9MY-4" target="_Mnv31haUIww7fpycwhO-32">
          <mxGeometry width="50" height="50" relative="1" as="geometry">
            <mxPoint x="750" y="660" as="sourcePoint" />
            <mxPoint x="800" y="610" as="targetPoint" />
          </mxGeometry>
        </mxCell>
        <mxCell id="_Mnv31haUIww7fpycwhO-35" value="IsA: Overlapping, Total" style="strokeWidth=1;html=1;shape=mxgraph.flowchart.extract_or_measurement;whiteSpace=wrap;labelPosition=right;verticalLabelPosition=middle;align=left;verticalAlign=middle;" vertex="1" parent="1">
          <mxGeometry x="135" y="565" width="50" height="40" as="geometry" />
        </mxCell>
        <mxCell id="_Mnv31haUIww7fpycwhO-37" value="Managers" style="rounded=0;whiteSpace=wrap;html=1;" vertex="1" parent="1">
          <mxGeometry x="-30" y="670" width="120" height="60" as="geometry" />
        </mxCell>
        <mxCell id="_Mnv31haUIww7fpycwhO-38" value="Cooks" style="rounded=0;whiteSpace=wrap;html=1;" vertex="1" parent="1">
          <mxGeometry x="220" y="670" width="120" height="60" as="geometry" />
        </mxCell>
        <mxCell id="_Mnv31haUIww7fpycwhO-39" value="Servers" style="rounded=0;whiteSpace=wrap;html=1;" vertex="1" parent="1">
          <mxGeometry x="100" y="770" width="120" height="60" as="geometry" />
        </mxCell>
        <mxCell id="_Mnv31haUIww7fpycwhO-41" value="Type" style="ellipse;whiteSpace=wrap;html=1;" vertex="1" parent="1">
          <mxGeometry x="835" y="90" width="70" height="40" as="geometry" />
        </mxCell>
        <mxCell id="_Mnv31haUIww7fpycwhO-42" value="Price" style="ellipse;whiteSpace=wrap;html=1;" vertex="1" parent="1">
          <mxGeometry x="910" y="90" width="70" height="40" as="geometry" />
        </mxCell>
        <mxCell id="_Mnv31haUIww7fpycwhO-43" value="" style="endArrow=none;html=1;rounded=0;exitX=0.5;exitY=0;exitDx=0;exitDy=0;entryX=0.5;entryY=1;entryDx=0;entryDy=0;" edge="1" parent="1" source="_Mnv31haUIww7fpycwhO-19" target="_Mnv31haUIww7fpycwhO-41">
          <mxGeometry width="50" height="50" relative="1" as="geometry">
            <mxPoint x="700" y="230" as="sourcePoint" />
            <mxPoint x="700" y="140" as="targetPoint" />
          </mxGeometry>
        </mxCell>
        <mxCell id="_Mnv31haUIww7fpycwhO-44" value="" style="endArrow=none;html=1;rounded=0;exitX=1;exitY=0;exitDx=0;exitDy=0;entryX=0.5;entryY=1;entryDx=0;entryDy=0;" edge="1" parent="1" source="_Mnv31haUIww7fpycwhO-19" target="_Mnv31haUIww7fpycwhO-42">
          <mxGeometry width="50" height="50" relative="1" as="geometry">
            <mxPoint x="820" y="240" as="sourcePoint" />
            <mxPoint x="802" y="140" as="targetPoint" />
          </mxGeometry>
        </mxCell>
        <mxCell id="_Mnv31haUIww7fpycwhO-46" value="Employ" style="rhombus;whiteSpace=wrap;html=1;" vertex="1" parent="1">
          <mxGeometry x="120" y="360" width="80" height="80" as="geometry" />
        </mxCell>
        <mxCell id="_Mnv31haUIww7fpycwhO-48" value="" style="endArrow=none;html=1;rounded=0;entryX=0.5;entryY=1;entryDx=0;entryDy=0;exitX=0.5;exitY=0;exitDx=0;exitDy=0;strokeWidth=1;" edge="1" parent="1" source="_Mnv31haUIww7fpycwhO-46" target="yUk9LNatjU3RDufKE9MY-1">
          <mxGeometry width="50" height="50" relative="1" as="geometry">
            <mxPoint x="130" y="370" as="sourcePoint" />
            <mxPoint x="180" y="320" as="targetPoint" />
          </mxGeometry>
        </mxCell>
        <mxCell id="_Mnv31haUIww7fpycwhO-49" value="" style="endArrow=none;html=1;rounded=0;entryX=0.5;entryY=1;entryDx=0;entryDy=0;exitX=0.5;exitY=0;exitDx=0;exitDy=0;strokeWidth=1;" edge="1" parent="1" source="yUk9LNatjU3RDufKE9MY-5" target="_Mnv31haUIww7fpycwhO-46">
          <mxGeometry width="50" height="50" relative="1" as="geometry">
            <mxPoint x="180" y="480" as="sourcePoint" />
            <mxPoint x="160" y="460" as="targetPoint" />
          </mxGeometry>
        </mxCell>
        <mxCell id="_Mnv31haUIww7fpycwhO-52" value="Date Employed" style="ellipse;whiteSpace=wrap;html=1;" vertex="1" parent="1">
          <mxGeometry x="195" y="320" width="70" height="40" as="geometry" />
        </mxCell>
        <mxCell id="_Mnv31haUIww7fpycwhO-53" value="" style="endArrow=none;html=1;rounded=0;entryX=1;entryY=0.5;entryDx=0;entryDy=0;exitX=0.5;exitY=1;exitDx=0;exitDy=0;" edge="1" parent="1" source="_Mnv31haUIww7fpycwhO-52" target="_Mnv31haUIww7fpycwhO-46">
          <mxGeometry width="50" height="50" relative="1" as="geometry">
            <mxPoint x="280" y="440" as="sourcePoint" />
            <mxPoint x="230" y="420" as="targetPoint" />
          </mxGeometry>
        </mxCell>
        <mxCell id="_Mnv31haUIww7fpycwhO-54" value="" style="endArrow=none;html=1;rounded=0;entryX=0.5;entryY=1;entryDx=0;entryDy=0;strokeWidth=3;" edge="1" parent="1" source="_Mnv31haUIww7fpycwhO-35" target="yUk9LNatjU3RDufKE9MY-5">
          <mxGeometry width="50" height="50" relative="1" as="geometry">
            <mxPoint x="20" y="620" as="sourcePoint" />
            <mxPoint x="70" y="570" as="targetPoint" />
          </mxGeometry>
        </mxCell>
        <mxCell id="_Mnv31haUIww7fpycwhO-55" value="&lt;u&gt;Employee ID&lt;/u&gt;" style="ellipse;whiteSpace=wrap;html=1;" vertex="1" parent="1">
          <mxGeometry x="245" y="360" width="70" height="40" as="geometry" />
        </mxCell>
        <mxCell id="_Mnv31haUIww7fpycwhO-56" value="" style="endArrow=none;html=1;rounded=0;entryX=1;entryY=0;entryDx=0;entryDy=0;exitX=0.5;exitY=1;exitDx=0;exitDy=0;" edge="1" parent="1" source="_Mnv31haUIww7fpycwhO-55" target="yUk9LNatjU3RDufKE9MY-5">
          <mxGeometry width="50" height="50" relative="1" as="geometry">
            <mxPoint x="30" y="520" as="sourcePoint" />
            <mxPoint x="70" y="470" as="targetPoint" />
          </mxGeometry>
        </mxCell>
        <mxCell id="_Mnv31haUIww7fpycwhO-57" value="Name" style="ellipse;whiteSpace=wrap;html=1;" vertex="1" parent="1">
          <mxGeometry x="290" y="400" width="70" height="40" as="geometry" />
        </mxCell>
        <mxCell id="_Mnv31haUIww7fpycwhO-58" value="" style="endArrow=none;html=1;rounded=0;exitX=0;exitY=0.5;exitDx=0;exitDy=0;entryX=1;entryY=0.25;entryDx=0;entryDy=0;" edge="1" parent="1" source="_Mnv31haUIww7fpycwhO-57" target="yUk9LNatjU3RDufKE9MY-5">
          <mxGeometry width="50" height="50" relative="1" as="geometry">
            <mxPoint x="20" y="500" as="sourcePoint" />
            <mxPoint x="80" y="500" as="targetPoint" />
          </mxGeometry>
        </mxCell>
        <mxCell id="_Mnv31haUIww7fpycwhO-59" value="Hourly Wage" style="ellipse;whiteSpace=wrap;html=1;" vertex="1" parent="1">
          <mxGeometry x="305" y="450" width="70" height="40" as="geometry" />
        </mxCell>
        <mxCell id="_Mnv31haUIww7fpycwhO-60" value="" style="endArrow=none;html=1;rounded=0;exitX=0;exitY=0.5;exitDx=0;exitDy=0;entryX=1;entryY=0.5;entryDx=0;entryDy=0;" edge="1" parent="1" source="_Mnv31haUIww7fpycwhO-59" target="yUk9LNatjU3RDufKE9MY-5">
          <mxGeometry width="50" height="50" relative="1" as="geometry">
            <mxPoint x="35" y="530" as="sourcePoint" />
            <mxPoint x="60" y="530" as="targetPoint" />
          </mxGeometry>
        </mxCell>
        <mxCell id="_Mnv31haUIww7fpycwhO-62" value="" style="endArrow=none;html=1;rounded=0;entryX=0.01;entryY=0.97;entryDx=0;entryDy=0;entryPerimeter=0;exitX=1;exitY=0;exitDx=0;exitDy=0;" edge="1" parent="1" source="_Mnv31haUIww7fpycwhO-37" target="_Mnv31haUIww7fpycwhO-35">
          <mxGeometry width="50" height="50" relative="1" as="geometry">
            <mxPoint x="70" y="660" as="sourcePoint" />
            <mxPoint x="120" y="610" as="targetPoint" />
          </mxGeometry>
        </mxCell>
        <mxCell id="_Mnv31haUIww7fpycwhO-63" value="" style="endArrow=none;html=1;rounded=0;entryX=0.99;entryY=0.97;entryDx=0;entryDy=0;entryPerimeter=0;exitX=0;exitY=0;exitDx=0;exitDy=0;" edge="1" parent="1" source="_Mnv31haUIww7fpycwhO-38" target="_Mnv31haUIww7fpycwhO-35">
          <mxGeometry width="50" height="50" relative="1" as="geometry">
            <mxPoint x="150" y="710" as="sourcePoint" />
            <mxPoint x="200" y="660" as="targetPoint" />
          </mxGeometry>
        </mxCell>
        <mxCell id="_Mnv31haUIww7fpycwhO-64" value="" style="endArrow=none;html=1;rounded=0;entryX=0.5;entryY=1;entryDx=0;entryDy=0;entryPerimeter=0;exitX=0.5;exitY=0;exitDx=0;exitDy=0;" edge="1" parent="1" source="_Mnv31haUIww7fpycwhO-39" target="_Mnv31haUIww7fpycwhO-35">
          <mxGeometry width="50" height="50" relative="1" as="geometry">
            <mxPoint x="140" y="710" as="sourcePoint" />
            <mxPoint x="190" y="660" as="targetPoint" />
          </mxGeometry>
        </mxCell>
        <mxCell id="_Mnv31haUIww7fpycwhO-66" value="Full-time Status" style="ellipse;whiteSpace=wrap;html=1;" vertex="1" parent="1">
          <mxGeometry x="286" y="545" width="70" height="40" as="geometry" />
        </mxCell>
        <mxCell id="_Mnv31haUIww7fpycwhO-67" value="" style="endArrow=none;html=1;rounded=0;exitX=0;exitY=0.5;exitDx=0;exitDy=0;entryX=1;entryY=1;entryDx=0;entryDy=0;" edge="1" parent="1" source="_Mnv31haUIww7fpycwhO-66" target="yUk9LNatjU3RDufKE9MY-5">
          <mxGeometry width="50" height="50" relative="1" as="geometry">
            <mxPoint x="45" y="605" as="sourcePoint" />
            <mxPoint x="120" y="565" as="targetPoint" />
          </mxGeometry>
        </mxCell>
        <mxCell id="_Mnv31haUIww7fpycwhO-69" value="Rank" style="ellipse;whiteSpace=wrap;html=1;" vertex="1" parent="1">
          <mxGeometry x="286" y="605" width="74" height="40" as="geometry" />
        </mxCell>
        <mxCell id="_Mnv31haUIww7fpycwhO-70" value="" style="endArrow=none;html=1;rounded=0;exitX=0.75;exitY=0;exitDx=0;exitDy=0;entryX=0.5;entryY=1;entryDx=0;entryDy=0;" edge="1" parent="1" source="_Mnv31haUIww7fpycwhO-38" target="_Mnv31haUIww7fpycwhO-69">
          <mxGeometry width="50" height="50" relative="1" as="geometry">
            <mxPoint x="340" y="630" as="sourcePoint" />
            <mxPoint x="390" y="620" as="targetPoint" />
          </mxGeometry>
        </mxCell>
        <mxCell id="_Mnv31haUIww7fpycwhO-72" value="Alcohol Serving Certification" style="ellipse;whiteSpace=wrap;html=1;" vertex="1" parent="1">
          <mxGeometry x="117.5" y="850" width="85" height="60" as="geometry" />
        </mxCell>
        <mxCell id="_Mnv31haUIww7fpycwhO-73" value="" style="endArrow=none;html=1;rounded=0;entryX=0.5;entryY=1;entryDx=0;entryDy=0;exitX=0.5;exitY=0;exitDx=0;exitDy=0;" edge="1" parent="1" source="_Mnv31haUIww7fpycwhO-72" target="_Mnv31haUIww7fpycwhO-39">
          <mxGeometry width="50" height="50" relative="1" as="geometry">
            <mxPoint x="30" y="900" as="sourcePoint" />
            <mxPoint x="80" y="850" as="targetPoint" />
          </mxGeometry>
        </mxCell>
        <mxCell id="_Mnv31haUIww7fpycwhO-76" value="Manage" style="rhombus;whiteSpace=wrap;html=1;" vertex="1" parent="1">
          <mxGeometry x="-10" y="420" width="80" height="80" as="geometry" />
        </mxCell>
        <mxCell id="_Mnv31haUIww7fpycwhO-77" value="" style="endArrow=classic;html=1;rounded=0;exitX=0.5;exitY=0;exitDx=0;exitDy=0;entryX=0.5;entryY=1;entryDx=0;entryDy=0;fontSize=11;strokeWidth=1;" edge="1" parent="1" source="_Mnv31haUIww7fpycwhO-37" target="_Mnv31haUIww7fpycwhO-76">
          <mxGeometry width="50" height="50" relative="1" as="geometry">
            <mxPoint x="20" y="650" as="sourcePoint" />
            <mxPoint x="70" y="600" as="targetPoint" />
          </mxGeometry>
        </mxCell>
        <mxCell id="_Mnv31haUIww7fpycwhO-79" value="Type" style="ellipse;whiteSpace=wrap;html=1;" vertex="1" parent="1">
          <mxGeometry x="1020" y="520" width="70" height="40" as="geometry" />
        </mxCell>
        <mxCell id="_Mnv31haUIww7fpycwhO-80" value="" style="endArrow=none;html=1;rounded=0;exitX=1;exitY=0.75;exitDx=0;exitDy=0;entryX=0;entryY=0.5;entryDx=0;entryDy=0;" edge="1" parent="1" source="yUk9LNatjU3RDufKE9MY-3" target="_Mnv31haUIww7fpycwhO-79">
          <mxGeometry width="50" height="50" relative="1" as="geometry">
            <mxPoint x="1000" y="500" as="sourcePoint" />
            <mxPoint x="1050" y="450" as="targetPoint" />
          </mxGeometry>
        </mxCell>
        <mxCell id="_Mnv31haUIww7fpycwhO-81" value="&lt;u&gt;Name&lt;/u&gt;" style="ellipse;whiteSpace=wrap;html=1;" vertex="1" parent="1">
          <mxGeometry x="1020" y="460" width="70" height="40" as="geometry" />
        </mxCell>
        <mxCell id="_Mnv31haUIww7fpycwhO-82" value="" style="endArrow=none;html=1;rounded=0;exitX=1;exitY=0.25;exitDx=0;exitDy=0;entryX=0;entryY=0.5;entryDx=0;entryDy=0;" edge="1" parent="1" source="yUk9LNatjU3RDufKE9MY-3" target="_Mnv31haUIww7fpycwhO-81">
          <mxGeometry width="50" height="50" relative="1" as="geometry">
            <mxPoint x="970" y="460" as="sourcePoint" />
            <mxPoint x="1020" y="410" as="targetPoint" />
          </mxGeometry>
        </mxCell>
        <mxCell id="_Mnv31haUIww7fpycwhO-83" value="&lt;u&gt;Supplier ID&lt;br&gt;&lt;/u&gt;" style="ellipse;whiteSpace=wrap;html=1;" vertex="1" parent="1">
          <mxGeometry x="1020" y="660" width="70" height="40" as="geometry" />
        </mxCell>
        <mxCell id="_Mnv31haUIww7fpycwhO-85" value="Location" style="ellipse;whiteSpace=wrap;html=1;" vertex="1" parent="1">
          <mxGeometry x="1020" y="710" width="70" height="40" as="geometry" />
        </mxCell>
        <mxCell id="_Mnv31haUIww7fpycwhO-86" value="" style="endArrow=none;html=1;rounded=0;exitX=1;exitY=0.5;exitDx=0;exitDy=0;entryX=0;entryY=0.5;entryDx=0;entryDy=0;" edge="1" parent="1" source="yUk9LNatjU3RDufKE9MY-4" target="_Mnv31haUIww7fpycwhO-85">
          <mxGeometry width="50" height="50" relative="1" as="geometry">
            <mxPoint x="980" y="715" as="sourcePoint" />
            <mxPoint x="1040" y="730" as="targetPoint" />
          </mxGeometry>
        </mxCell>
        <mxCell id="_Mnv31haUIww7fpycwhO-87" value="Name" style="ellipse;whiteSpace=wrap;html=1;" vertex="1" parent="1">
          <mxGeometry x="1020" y="760" width="70" height="40" as="geometry" />
        </mxCell>
        <mxCell id="_Mnv31haUIww7fpycwhO-88" value="" style="endArrow=none;html=1;rounded=0;entryX=1;entryY=1;entryDx=0;entryDy=0;exitX=0;exitY=0.5;exitDx=0;exitDy=0;" edge="1" parent="1" source="_Mnv31haUIww7fpycwhO-87" target="yUk9LNatjU3RDufKE9MY-4">
          <mxGeometry width="50" height="50" relative="1" as="geometry">
            <mxPoint x="910" y="840" as="sourcePoint" />
            <mxPoint x="960" y="790" as="targetPoint" />
          </mxGeometry>
        </mxCell>
        <mxCell id="ZDln6vh-WvU1gvhFM1nj-1" value="Include" style="rhombus;whiteSpace=wrap;html=1;" vertex="1" parent="1">
          <mxGeometry x="710" y="350" width="80" height="80" as="geometry" />
        </mxCell>
        <mxCell id="ZDln6vh-WvU1gvhFM1nj-2" value="" style="endArrow=none;html=1;rounded=0;entryX=0.5;entryY=1;entryDx=0;entryDy=0;exitX=1;exitY=0;exitDx=0;exitDy=0;strokeWidth=1;" edge="1" parent="1" source="yUk9LNatjU3RDufKE9MY-7" target="ZDln6vh-WvU1gvhFM1nj-1">
          <mxGeometry width="50" height="50" relative="1" as="geometry">
            <mxPoint x="660" y="480" as="sourcePoint" />
            <mxPoint x="710" y="430" as="targetPoint" />
            <Array as="points">
              <mxPoint x="750" y="480" />
            </Array>
          </mxGeometry>
        </mxCell>
        <mxCell id="ZDln6vh-WvU1gvhFM1nj-3" value="" style="endArrow=none;html=1;rounded=0;entryX=0.25;entryY=1;entryDx=0;entryDy=0;exitX=1;exitY=0.5;exitDx=0;exitDy=0;" edge="1" parent="1" source="ZDln6vh-WvU1gvhFM1nj-1" target="_Mnv31haUIww7fpycwhO-19">
          <mxGeometry width="50" height="50" relative="1" as="geometry">
            <mxPoint x="750" y="350" as="sourcePoint" />
            <mxPoint x="800" y="300" as="targetPoint" />
            <Array as="points">
              <mxPoint x="840" y="390" />
            </Array>
          </mxGeometry>
        </mxCell>
        <mxCell id="ZDln6vh-WvU1gvhFM1nj-4" value="&lt;u&gt;Order ID&lt;/u&gt;" style="ellipse;whiteSpace=wrap;html=1;" vertex="1" parent="1">
          <mxGeometry x="757" y="490" width="70" height="40" as="geometry" />
        </mxCell>
        <mxCell id="ZDln6vh-WvU1gvhFM1nj-5" value="" style="endArrow=none;html=1;rounded=0;entryX=0;entryY=0.5;entryDx=0;entryDy=0;exitX=1;exitY=0.5;exitDx=0;exitDy=0;" edge="1" parent="1" source="yUk9LNatjU3RDufKE9MY-7" target="ZDln6vh-WvU1gvhFM1nj-4">
          <mxGeometry width="50" height="50" relative="1" as="geometry">
            <mxPoint x="740" y="560" as="sourcePoint" />
            <mxPoint x="530" y="450" as="targetPoint" />
          </mxGeometry>
        </mxCell>
        <mxCell id="ZDln6vh-WvU1gvhFM1nj-7" value="Can Cook" style="rhombus;whiteSpace=wrap;html=1;" vertex="1" parent="1">
          <mxGeometry x="470" y="540" width="80" height="80" as="geometry" />
        </mxCell>
        <mxCell id="ZDln6vh-WvU1gvhFM1nj-8" value="" style="endArrow=none;html=1;rounded=0;entryX=0.5;entryY=1;entryDx=0;entryDy=0;exitX=1;exitY=0.5;exitDx=0;exitDy=0;" edge="1" parent="1" source="_Mnv31haUIww7fpycwhO-38" target="ZDln6vh-WvU1gvhFM1nj-7">
          <mxGeometry width="50" height="50" relative="1" as="geometry">
            <mxPoint x="470" y="570" as="sourcePoint" />
            <mxPoint x="520" y="520" as="targetPoint" />
            <Array as="points">
              <mxPoint x="510" y="700" />
            </Array>
          </mxGeometry>
        </mxCell>
        <mxCell id="ZDln6vh-WvU1gvhFM1nj-9" value="" style="endArrow=none;html=1;rounded=0;entryX=0;entryY=1;entryDx=0;entryDy=0;exitX=0.5;exitY=0;exitDx=0;exitDy=0;" edge="1" parent="1" source="ZDln6vh-WvU1gvhFM1nj-7" target="_Mnv31haUIww7fpycwhO-19">
          <mxGeometry width="50" height="50" relative="1" as="geometry">
            <mxPoint x="570" y="390" as="sourcePoint" />
            <mxPoint x="620" y="340" as="targetPoint" />
            <Array as="points">
              <mxPoint x="510" y="350" />
            </Array>
          </mxGeometry>
        </mxCell>
        <mxCell id="ZDln6vh-WvU1gvhFM1nj-10" value="Serve" style="rhombus;whiteSpace=wrap;html=1;" vertex="1" parent="1">
          <mxGeometry x="430" y="760" width="80" height="80" as="geometry" />
        </mxCell>
        <mxCell id="ZDln6vh-WvU1gvhFM1nj-11" value="Total Price" style="ellipse;whiteSpace=wrap;html=1;" vertex="1" parent="1">
          <mxGeometry x="757" y="544" width="70" height="40" as="geometry" />
        </mxCell>
        <mxCell id="ZDln6vh-WvU1gvhFM1nj-12" value="" style="endArrow=none;html=1;rounded=0;entryX=0;entryY=0.5;entryDx=0;entryDy=0;exitX=1;exitY=1;exitDx=0;exitDy=0;" edge="1" parent="1" source="yUk9LNatjU3RDufKE9MY-7" target="ZDln6vh-WvU1gvhFM1nj-11">
          <mxGeometry width="50" height="50" relative="1" as="geometry">
            <mxPoint x="730" y="520" as="sourcePoint" />
            <mxPoint x="767" y="520" as="targetPoint" />
          </mxGeometry>
        </mxCell>
        <mxCell id="ZDln6vh-WvU1gvhFM1nj-13" value="Date" style="ellipse;whiteSpace=wrap;html=1;" vertex="1" parent="1">
          <mxGeometry x="687" y="580" width="70" height="40" as="geometry" />
        </mxCell>
        <mxCell id="ZDln6vh-WvU1gvhFM1nj-14" value="" style="endArrow=none;html=1;rounded=0;exitX=0.5;exitY=0;exitDx=0;exitDy=0;entryX=0.75;entryY=1;entryDx=0;entryDy=0;" edge="1" parent="1" source="ZDln6vh-WvU1gvhFM1nj-13" target="yUk9LNatjU3RDufKE9MY-7">
          <mxGeometry width="50" height="50" relative="1" as="geometry">
            <mxPoint x="590" y="640" as="sourcePoint" />
            <mxPoint x="640" y="590" as="targetPoint" />
          </mxGeometry>
        </mxCell>
        <mxCell id="ZDln6vh-WvU1gvhFM1nj-15" value="Place" style="rhombus;whiteSpace=wrap;html=1;" vertex="1" parent="1">
          <mxGeometry x="620" y="670" width="80" height="80" as="geometry" />
        </mxCell>
        <mxCell id="ZDln6vh-WvU1gvhFM1nj-16" value="" style="endArrow=classic;html=1;rounded=0;exitX=0.5;exitY=1;exitDx=0;exitDy=0;entryX=0.5;entryY=0;entryDx=0;entryDy=0;strokeWidth=3;" edge="1" parent="1" source="yUk9LNatjU3RDufKE9MY-7" target="ZDln6vh-WvU1gvhFM1nj-15">
          <mxGeometry width="50" height="50" relative="1" as="geometry">
            <mxPoint x="590" y="690" as="sourcePoint" />
            <mxPoint x="640" y="640" as="targetPoint" />
          </mxGeometry>
        </mxCell>
        <mxCell id="ZDln6vh-WvU1gvhFM1nj-18" value="" style="endArrow=none;html=1;rounded=0;exitX=1;exitY=0.5;exitDx=0;exitDy=0;entryX=0.75;entryY=0;entryDx=0;entryDy=0;strokeWidth=1;" edge="1" parent="1" source="ZDln6vh-WvU1gvhFM1nj-15" target="yUk9LNatjU3RDufKE9MY-6">
          <mxGeometry width="50" height="50" relative="1" as="geometry">
            <mxPoint x="750" y="740" as="sourcePoint" />
            <mxPoint x="800" y="690" as="targetPoint" />
            <Array as="points">
              <mxPoint x="745" y="710" />
            </Array>
          </mxGeometry>
        </mxCell>
        <mxCell id="ZDln6vh-WvU1gvhFM1nj-19" value="Name" style="ellipse;whiteSpace=wrap;html=1;" vertex="1" parent="1">
          <mxGeometry x="590" y="920" width="70" height="40" as="geometry" />
        </mxCell>
        <mxCell id="ZDln6vh-WvU1gvhFM1nj-21" value="&lt;u&gt;Email&lt;/u&gt;" style="ellipse;whiteSpace=wrap;html=1;" vertex="1" parent="1">
          <mxGeometry x="680" y="920" width="70" height="40" as="geometry" />
        </mxCell>
        <mxCell id="ZDln6vh-WvU1gvhFM1nj-22" value="" style="endArrow=none;html=1;rounded=0;entryX=0.25;entryY=1;entryDx=0;entryDy=0;exitX=0.5;exitY=0;exitDx=0;exitDy=0;" edge="1" parent="1" source="ZDln6vh-WvU1gvhFM1nj-19" target="yUk9LNatjU3RDufKE9MY-6">
          <mxGeometry width="50" height="50" relative="1" as="geometry">
            <mxPoint x="600" y="950" as="sourcePoint" />
            <mxPoint x="650" y="900" as="targetPoint" />
          </mxGeometry>
        </mxCell>
        <mxCell id="ZDln6vh-WvU1gvhFM1nj-23" value="" style="endArrow=none;html=1;rounded=0;entryX=0.5;entryY=1;entryDx=0;entryDy=0;exitX=0.5;exitY=0;exitDx=0;exitDy=0;" edge="1" parent="1" source="ZDln6vh-WvU1gvhFM1nj-21" target="yUk9LNatjU3RDufKE9MY-6">
          <mxGeometry width="50" height="50" relative="1" as="geometry">
            <mxPoint x="685" y="930" as="sourcePoint" />
            <mxPoint x="695" y="880" as="targetPoint" />
          </mxGeometry>
        </mxCell>
        <mxCell id="ZDln6vh-WvU1gvhFM1nj-26" value="Phone Number" style="ellipse;whiteSpace=wrap;html=1;" vertex="1" parent="1">
          <mxGeometry x="765" y="920" width="70" height="40" as="geometry" />
        </mxCell>
        <mxCell id="ZDln6vh-WvU1gvhFM1nj-27" value="" style="endArrow=none;html=1;rounded=0;entryX=0.75;entryY=1;entryDx=0;entryDy=0;exitX=0.5;exitY=0;exitDx=0;exitDy=0;" edge="1" parent="1" source="ZDln6vh-WvU1gvhFM1nj-26" target="yUk9LNatjU3RDufKE9MY-6">
          <mxGeometry width="50" height="50" relative="1" as="geometry">
            <mxPoint x="635" y="930" as="sourcePoint" />
            <mxPoint x="695" y="880" as="targetPoint" />
          </mxGeometry>
        </mxCell>
        <mxCell id="ZDln6vh-WvU1gvhFM1nj-29" value="" style="endArrow=none;html=1;rounded=0;exitX=1;exitY=0.5;exitDx=0;exitDy=0;entryX=0;entryY=0.5;entryDx=0;entryDy=0;" edge="1" parent="1" source="_Mnv31haUIww7fpycwhO-39" target="ZDln6vh-WvU1gvhFM1nj-10">
          <mxGeometry width="50" height="50" relative="1" as="geometry">
            <mxPoint x="290" y="820" as="sourcePoint" />
            <mxPoint x="340" y="770" as="targetPoint" />
          </mxGeometry>
        </mxCell>
        <mxCell id="ZDln6vh-WvU1gvhFM1nj-30" value="" style="endArrow=classic;html=1;rounded=0;exitX=0;exitY=1;exitDx=0;exitDy=0;entryX=1;entryY=0.5;entryDx=0;entryDy=0;strokeWidth=3;" edge="1" parent="1" source="yUk9LNatjU3RDufKE9MY-7" target="ZDln6vh-WvU1gvhFM1nj-10">
          <mxGeometry width="50" height="50" relative="1" as="geometry">
            <mxPoint x="580" y="610" as="sourcePoint" />
            <mxPoint x="630" y="560" as="targetPoint" />
            <Array as="points">
              <mxPoint x="580" y="800" />
            </Array>
          </mxGeometry>
        </mxCell>
        <mxCell id="ZDln6vh-WvU1gvhFM1nj-32" value="" style="endArrow=none;dashed=1;html=1;rounded=0;" edge="1" parent="1">
          <mxGeometry width="50" height="50" relative="1" as="geometry">
            <mxPoint x="772" y="117" as="sourcePoint" />
            <mxPoint x="812" y="117" as="targetPoint" />
          </mxGeometry>
        </mxCell>
        <mxCell id="ZDln6vh-WvU1gvhFM1nj-33" value="Satisfaction Rating" style="ellipse;whiteSpace=wrap;html=1;" vertex="1" parent="1">
          <mxGeometry x="622.5" y="760" width="75" height="40" as="geometry" />
        </mxCell>
        <mxCell id="ZDln6vh-WvU1gvhFM1nj-34" value="" style="endArrow=none;html=1;rounded=0;entryX=0.5;entryY=1;entryDx=0;entryDy=0;exitX=0.5;exitY=0;exitDx=0;exitDy=0;" edge="1" parent="1" source="ZDln6vh-WvU1gvhFM1nj-33" target="ZDln6vh-WvU1gvhFM1nj-15">
          <mxGeometry width="50" height="50" relative="1" as="geometry">
            <mxPoint x="520" y="730" as="sourcePoint" />
            <mxPoint x="570" y="680" as="targetPoint" />
          </mxGeometry>
        </mxCell>
        <mxCell id="9_4IUA-pbEumj_8sEMLd-1" value="Quantity" style="ellipse;whiteSpace=wrap;html=1;" vertex="1" parent="1">
          <mxGeometry x="1020" y="370" width="70" height="40" as="geometry" />
        </mxCell>
        <mxCell id="9_4IUA-pbEumj_8sEMLd-2" value="" style="endArrow=none;html=1;rounded=0;exitX=1;exitY=0.5;exitDx=0;exitDy=0;entryX=0;entryY=0.5;entryDx=0;entryDy=0;" edge="1" parent="1" source="_Mnv31haUIww7fpycwhO-29" target="9_4IUA-pbEumj_8sEMLd-1">
          <mxGeometry width="50" height="50" relative="1" as="geometry">
            <mxPoint x="460" y="560" as="sourcePoint" />
            <mxPoint x="510" y="510" as="targetPoint" />
          </mxGeometry>
        </mxCell>
        <mxCell id="9_4IUA-pbEumj_8sEMLd-4" value="Take" style="rhombus;whiteSpace=wrap;html=1;" vertex="1" parent="1">
          <mxGeometry x="400" y="330" width="80" height="80" as="geometry" />
        </mxCell>
        <mxCell id="9_4IUA-pbEumj_8sEMLd-5" value="" style="endArrow=classic;html=1;rounded=0;exitX=0;exitY=0.5;exitDx=0;exitDy=0;entryX=0.5;entryY=1;entryDx=0;entryDy=0;strokeWidth=3;" edge="1" parent="1" source="yUk9LNatjU3RDufKE9MY-7" target="9_4IUA-pbEumj_8sEMLd-4">
          <mxGeometry width="50" height="50" relative="1" as="geometry">
            <mxPoint x="460" y="570" as="sourcePoint" />
            <mxPoint x="530" y="460" as="targetPoint" />
            <Array as="points">
              <mxPoint x="440" y="510" />
            </Array>
          </mxGeometry>
        </mxCell>
        <mxCell id="9_4IUA-pbEumj_8sEMLd-6" value="" style="endArrow=none;html=1;rounded=0;exitX=1;exitY=1;exitDx=0;exitDy=0;entryX=0;entryY=0.5;entryDx=0;entryDy=0;" edge="1" parent="1" source="yUk9LNatjU3RDufKE9MY-1" target="9_4IUA-pbEumj_8sEMLd-4">
          <mxGeometry width="50" height="50" relative="1" as="geometry">
            <mxPoint x="380" y="390" as="sourcePoint" />
            <mxPoint x="410" y="420" as="targetPoint" />
            <Array as="points">
              <mxPoint x="370" y="370" />
            </Array>
          </mxGeometry>
        </mxCell>
        <mxCell id="9_4IUA-pbEumj_8sEMLd-8" value="Cost" style="ellipse;whiteSpace=wrap;html=1;" vertex="1" parent="1">
          <mxGeometry x="1020" y="600" width="70" height="40" as="geometry" />
        </mxCell>
        <mxCell id="9_4IUA-pbEumj_8sEMLd-12" value="" style="endArrow=none;html=1;rounded=0;exitX=1;exitY=0.5;exitDx=0;exitDy=0;entryX=0;entryY=0.5;entryDx=0;entryDy=0;" edge="1" parent="1" source="_Mnv31haUIww7fpycwhO-32" target="9_4IUA-pbEumj_8sEMLd-8">
          <mxGeometry width="50" height="50" relative="1" as="geometry">
            <mxPoint x="950" y="650" as="sourcePoint" />
            <mxPoint x="1000" y="600" as="targetPoint" />
          </mxGeometry>
        </mxCell>
        <mxCell id="9_4IUA-pbEumj_8sEMLd-14" value="" style="endArrow=none;html=1;rounded=0;exitX=1;exitY=0.25;exitDx=0;exitDy=0;entryX=0;entryY=0.5;entryDx=0;entryDy=0;" edge="1" parent="1" source="yUk9LNatjU3RDufKE9MY-4" target="_Mnv31haUIww7fpycwhO-83">
          <mxGeometry width="50" height="50" relative="1" as="geometry">
            <mxPoint x="970" y="745" as="sourcePoint" />
            <mxPoint x="1030" y="740" as="targetPoint" />
          </mxGeometry>
        </mxCell>
        <mxCell id="9_4IUA-pbEumj_8sEMLd-15" value="Location" style="ellipse;whiteSpace=wrap;html=1;" vertex="1" parent="1">
          <mxGeometry x="1020" y="710" width="70" height="40" as="geometry" />
        </mxCell>
        <mxCell id="BesuTu0fT9zLGV2i_acK-2" value="Branch" style="ellipse;whiteSpace=wrap;html=1;" vertex="1" parent="1">
          <mxGeometry x="230" y="90" width="70" height="40" as="geometry" />
        </mxCell>
        <mxCell id="BesuTu0fT9zLGV2i_acK-3" value="" style="endArrow=none;html=1;rounded=0;entryX=0.5;entryY=1;entryDx=0;entryDy=0;exitX=0.75;exitY=0;exitDx=0;exitDy=0;" edge="1" parent="1" source="yUk9LNatjU3RDufKE9MY-1" target="BesuTu0fT9zLGV2i_acK-2">
          <mxGeometry width="50" height="50" relative="1" as="geometry">
            <mxPoint x="200" y="200" as="sourcePoint" />
            <mxPoint x="250" y="150" as="targetPoint" />
          </mxGeometry>
        </mxCell>
        <mxCell id="oeIoIxgJTZHF0fKiBLmk-1" value="Hours Per Week" style="ellipse;whiteSpace=wrap;html=1;" vertex="1" parent="1">
          <mxGeometry x="300" y="500" width="70" height="40" as="geometry" />
        </mxCell>
        <mxCell id="oeIoIxgJTZHF0fKiBLmk-2" value="" style="endArrow=none;html=1;rounded=0;exitX=0;exitY=0.5;exitDx=0;exitDy=0;entryX=1;entryY=0.75;entryDx=0;entryDy=0;" edge="1" parent="1" source="oeIoIxgJTZHF0fKiBLmk-1" target="yUk9LNatjU3RDufKE9MY-5">
          <mxGeometry width="50" height="50" relative="1" as="geometry">
            <mxPoint x="315" y="480" as="sourcePoint" />
            <mxPoint x="230" y="520" as="targetPoint" />
          </mxGeometry>
        </mxCell>
      </root>
    </mxGraphModel>
  </diagram>
</mxfile>
